<?xml version="1.0" encoding="utf-8"?>
<!-- Generator: Adobe Illustrator 23.0.0, SVG Export Plug-In . SVG Version: 6.00 Build 0)  -->
<svg version="1.1" id="Layer_1" xmlns="http://www.w3.org/2000/svg" xmlns:xlink="http://www.w3.org/1999/xlink" x="0px" y="0px"
	 viewBox="0 0 341.1 248.1" style="enable-background:new 0 0 341.1 248.1;" xml:space="preserve">
<style type="text/css">
	.st0{fill:#00FE9C;}
</style>
<g>
	<path class="st0" d="M274.7,60.6c5.7,19.7,11.1,38.2,16.4,56.7c7.3,25.6,14.6,51.2,21.9,76.7c1.4,5,1.2,5.4-4.1,5.4
		c-82.6,0-165.3,0-247.9,0.1c-4.3,0-5.8-1.3-5.7-5.7c0.2-26.7,0-53.3,0.2-80c0-2.5,0.8-5.4,2.3-7.3C79,78.8,100.5,51.2,122,23.7
		c0.8-1,1.7-2,2.9-3.3c2,1.8,3.8,3.4,5.5,5.2c26.7,26.7,53.5,53.4,80.1,80.3c3.4,3.5,5.5,3.3,9,0.3c16.6-14.1,33.4-28,50.2-41.9
		C271.1,63.1,272.6,62.1,274.7,60.6z"/>
	<path class="st0" d="M15.2,0.1c5.7,0,10.5,0.2,15.3-0.1c2.8-0.1,4.1,0.7,3.9,3.6c-0.1,1.5,0,3,0,4.5c0,68.2,0,136.3,0,204.5
		c0,7.1,0,7.1,6.9,7.1c95.5,0,191,0,286.4,0c2,0,3.9,0,6.7,0c0,5.9,0.1,11.5-0.1,17.1c0,0.8-1.5,1.9-2.5,2.3c-1.2,0.4-2.6,0.2-4,0.2
		c-102,0-204,0-305.9,0c-6.7,0-6.7,0-6.7-6.8c0-75.5,0-151,0-226.5C15.2,4.1,15.2,2.3,15.2,0.1z"/>
</g>
</svg>
