<?xml version="1.0" encoding="utf-8"?>
<!-- Generator: Adobe Illustrator 23.0.0, SVG Export Plug-In . SVG Version: 6.00 Build 0)  -->
<svg version="1.1" id="Layer_1" xmlns="http://www.w3.org/2000/svg" xmlns:xlink="http://www.w3.org/1999/xlink" x="0px" y="0px"
	 viewBox="0 0 38.7 31.8" style="enable-background:new 0 0 38.7 31.8;" xml:space="preserve">
<style type="text/css">
	.st0{fill:#00FE9C;}
</style>
<g>
	<path class="st0" d="M31.5,8.1c0.7,2.6,1.3,5.1,2,7.5c0.9,3.4,1.8,6.8,2.7,10.2c0.2,0.7,0.1,0.7-0.5,0.7c-10,0-20,0-30.1,0
		c-0.5,0-0.7-0.2-0.7-0.8c0-3.6,0-7.1,0-10.6c0-0.3,0.1-0.7,0.3-1c2.6-3.7,5.2-7.4,7.8-11C13,3,13.2,2.9,13.3,2.7
		C13.5,3,13.8,3.2,14,3.4c3.2,3.6,6.5,7.1,9.7,10.7c0.4,0.5,0.7,0.4,1.1,0c2-1.9,4.1-3.7,6.1-5.6C31,8.4,31.2,8.3,31.5,8.1z"/>
	<path class="st0" d="M0,0c0.7,0,1.3,0,1.9,0c0.3,0,0.5,0.1,0.5,0.5c0,0.2,0,0.4,0,0.6c0,9.1,0,18.1,0,27.2c0,0.9,0,0.9,0.8,0.9
		c11.6,0,23.2,0,34.7,0c0.2,0,0.5,0,0.8,0c0,0.8,0,1.5,0,2.3c0,0.1-0.2,0.3-0.3,0.3c-0.1,0.1-0.3,0-0.5,0c-12.4,0-24.7,0-37.1,0
		c-0.8,0-0.8,0-0.8-0.9c0-10,0-20.1,0-30.1C0,0.5,0,0.3,0,0z"/>
</g>
</svg>
