<?xml version="1.0" encoding="utf-8"?>
<!-- Generator: Adobe Illustrator 23.0.0, SVG Export Plug-In . SVG Version: 6.00 Build 0)  -->
<svg version="1.1" id="Layer_1" xmlns="http://www.w3.org/2000/svg" xmlns:xlink="http://www.w3.org/1999/xlink" x="0px" y="0px"
	 viewBox="0 0 409.5 355.3" style="enable-background:new 0 0 409.5 355.3;" xml:space="preserve">
<style type="text/css">
	.st0{fill:#00FE9C;}
</style>
<g>
	<path class="st0" d="M0,306.5c10.9-4.2,22.1-7.8,32.7-12.7c15.6-7.2,26.3-19.9,35.5-34.1c5.4-8.3,10.9-17.1,18-23.8
		c19.1-17.8,41.8-25.4,67.7-18.9c20.2,5.1,33,19,39.6,38.3c11.1,32.5-1.7,65.2-32.2,83.3c-23.1,13.7-48.5,18.1-74.9,16.3
		c-20.1-1.4-39.4-6.4-57-16.6c-12.5-7.2-22.8-16.6-28.6-30.2c-0.1-0.3-0.5-0.6-0.8-0.9C0,307.1,0,306.8,0,306.5z"/>
	<path class="st0" d="M217.6,250.7c-10.7-29.4-28.9-48.8-59-58.6c1.3-0.7,2.9-1.1,3.9-2.1c62.4-59.6,124.7-119.2,187-178.7
		C362.5-1.2,378.2-3.4,393,5c16.9,9.6,22,34.1,10,49.4c-4.1,5.2-8.8,10-13.4,14.8c-56.4,59.1-112.9,118.1-169.3,177.2
		C219.3,247.4,218.8,248.7,217.6,250.7z"/>
</g>
</svg>
