<?xml version="1.0" encoding="utf-8"?>
<!-- Generator: Adobe Illustrator 23.0.0, SVG Export Plug-In . SVG Version: 6.00 Build 0)  -->
<svg version="1.1" id="Layer_1" xmlns="http://www.w3.org/2000/svg" xmlns:xlink="http://www.w3.org/1999/xlink" x="0px" y="0px"
	 viewBox="0 0 178.9 187.9" style="enable-background:new 0 0 178.9 187.9;" xml:space="preserve">
<style type="text/css">
	.st0{fill:#FFFFFF;}
</style>
<g>
	<path class="st0" d="M178.9,187.9c-59.7,0-119.3,0-178.9,0C0,125.3,0,62.6,0,0c59.7,0,119.3,0,178.9,0
		C178.9,62.7,178.9,125.3,178.9,187.9z M40.1,114.3c-1,17.6,2.8,33.5,12.8,47.6c19.3,27.3,54.8,27.5,73.8,0.1
		c5.1-7.3,8.4-16.2,11-24.8c2.2-7.3,2-15.2,2.9-22.8c15,3.9,11.4,1.3,9.6,15c-1.4,10.6-4.7,21-7.1,31.5c-1.1,4.5,0.5,8,4.2,8.8
		c3.9,0.9,6.5-1,7.7-4.7c5.5-16.7,8.6-33.8,9.7-51.3c0.2-3.4-1.6-5.7-4.8-6.7c-5.5-1.8-11-3.8-16.7-5.1c-10.3-2.4-20.7-4.4-31.1-6.5
		c2.2-8.3,2.3-7.9,10.9-9.6c10.1-1.9,20-4.6,30-7c3.7-0.9,5.8-3.2,5.4-7.2c-0.9-8.6-1.7-17.2-2.9-25.8c-0.8-5.6-3.6-7.7-7.7-7
		c-3.9,0.7-5.4,4.1-4.5,9.6c0.8,5.3,1.3,10.6,2.2,15.8c0.5,3-0.3,4.2-3.3,4.8c-9.2,1.9-18.4,4.1-27.9,6.2c-1.1-2.5-2-4.3-3-6.7
		c1.9-0.3,3.2-0.5,4.4-0.8c5.8-1.2,10.7-5.5,11.2-10.7c0.4-4.6,0.5-9.4-0.3-13.9c-0.7-3.4-0.4-5.7,2.4-7.7c4.7-3.3,5.3-7.9,3.8-12.9
		c-1.1-3.6-2.4-7.2-4-10.7c-1.7-3.7-4.4-6-8.8-4.1c-3.7,1.6-4.4,5.1-2.4,9.7c1.2,2.8,2.1,5.8,3.1,8.7c-0.4,0.2-0.8,0.5-1.2,0.7
		C99.7,9.1,79.9,8.7,59.7,26.8c0.7-3.6,1.7-6.9,3.1-9.9c1.7-3.7,1-6.7-2.4-8.6C57.1,6.6,53.5,7.3,52,11c-2.2,5.3-3.9,10.9-5.2,16.5
		c-0.4,1.6,0.5,4.4,1.8,5.3c5,3.8,6.4,8.4,4.3,14.2c-0.3,0.9-0.3,2-0.3,3C52,61.3,55.8,66,67,68.2c0.6,0.1,1.1,0.6,1.4,0.8
		c-0.7,4.9-3.2,6.1-7.7,5c-7.7-1.9-15.5-3.5-23.3-5.1c-2.4-0.5-3.2-1.6-2.8-4.2c1-6.1,1.7-12.2,2.5-18.3c0.5-3.8-0.7-6.8-4.7-7.5
		c-4.1-0.7-6.8,1.2-7.4,5.5c-1.1,8.7-2.1,17.5-3.2,26.2C21.1,75.3,23,78,27.5,79c10,2.3,19.9,5.2,30,6.8c6.3,1,10,3.2,10.4,10
		c-2,0.3-4.1,0.6-6.2,1.1c-13.8,3.3-27.7,6.7-41.5,10.2c-3.5,0.9-5.1,3.5-4.9,7.2c1.3,17,4.2,33.6,9.5,49.8c1.3,4,3.5,6.5,8,5.6
		c3.9-0.9,5.2-4.3,4-9.3c-2.5-10.5-5.1-20.9-7.3-31.5C27,117.2,27.6,116.5,40.1,114.3z"/>
	<path d="M40.1,114.3c-12.5,2.2-13.1,2.8-10.7,14.5c2.2,10.5,4.8,21,7.3,31.5c1.2,5,0,8.5-4,9.3c-4.4,1-6.6-1.5-8-5.6
		c-5.3-16.2-8.2-32.9-9.5-49.8c-0.3-3.7,1.4-6.3,4.9-7.2c13.8-3.5,27.7-6.8,41.5-10.2c2.1-0.5,4.2-0.7,6.2-1.1
		c-0.4-6.9-4.1-9-10.4-10c-10.1-1.6-20-4.5-30-6.8c-4.5-1-6.4-3.7-5.8-8.3c1.1-8.7,2.1-17.5,3.2-26.2c0.5-4.3,3.3-6.2,7.4-5.5
		c4.1,0.7,5.2,3.7,4.7,7.5c-0.8,6.1-1.5,12.2-2.5,18.3c-0.4,2.6,0.3,3.7,2.8,4.2c7.8,1.6,15.6,3.1,23.3,5.1c4.5,1.1,7-0.1,7.7-5
		c-0.3-0.2-0.8-0.7-1.4-0.8C55.8,66,52,61.3,52.6,50c0.1-1,0-2.1,0.3-3c2-5.8,0.7-10.4-4.3-14.2c-1.3-1-2.1-3.7-1.8-5.3
		c1.4-5.6,3-11.1,5.2-16.5c1.5-3.7,5.1-4.4,8.4-2.6c3.4,1.8,4.1,4.9,2.4,8.6c-1.4,3-2.4,6.3-3.1,9.9C79.9,8.7,99.7,9.1,119.4,27
		c0.4-0.2,0.8-0.5,1.2-0.7c-1-2.9-1.9-5.9-3.1-8.7c-2-4.6-1.3-8,2.4-9.7c4.4-1.9,7.1,0.4,8.8,4.1c1.6,3.4,2.9,7,4,10.7
		c1.5,5,0.9,9.6-3.8,12.9c-2.8,2-3.1,4.3-2.4,7.7c0.9,4.5,0.8,9.3,0.3,13.9c-0.5,5.2-5.3,9.5-11.2,10.7c-1.3,0.3-2.5,0.4-4.4,0.8
		c1,2.3,1.9,4.2,3,6.7c9.5-2.1,18.6-4.2,27.9-6.2c2.9-0.6,3.8-1.8,3.3-4.8c-0.9-5.2-1.4-10.5-2.2-15.8c-0.8-5.5,0.7-8.8,4.5-9.6
		c4.1-0.8,6.9,1.4,7.7,7c1.2,8.5,2,17.2,2.9,25.8c0.4,4-1.7,6.3-5.4,7.2c-10,2.4-19.9,5.1-30,7c-8.6,1.6-8.7,1.3-10.9,9.6
		c10.4,2.2,20.8,4.1,31.1,6.5c5.6,1.3,11.1,3.3,16.7,5.1c3.2,1,5.1,3.3,4.8,6.7c-1.2,17.5-4.3,34.6-9.7,51.3
		c-1.2,3.6-3.8,5.5-7.7,4.7c-3.7-0.8-5.2-4.3-4.2-8.8c2.5-10.5,5.7-20.9,7.1-31.5c1.8-13.8,5.4-11.1-9.6-15
		c-0.9,7.6-0.8,15.5-2.9,22.8c-2.6,8.6-5.9,17.5-11,24.8c-18.9,27.5-54.5,27.2-73.8-0.1C42.9,147.8,39.2,131.9,40.1,114.3z"/>
</g>
</svg>
