<?xml version="1.0" encoding="utf-8"?>
<!-- Generator: Adobe Illustrator 23.0.0, SVG Export Plug-In . SVG Version: 6.00 Build 0)  -->
<svg version="1.1" id="Layer_1" xmlns="http://www.w3.org/2000/svg" xmlns:xlink="http://www.w3.org/1999/xlink" x="0px" y="0px"
	 viewBox="0 0 207 168" style="enable-background:new 0 0 207 168;" xml:space="preserve">
<style type="text/css">
	.st0{fill:#FFFFFF;}
</style>
<g>
	<path class="st0" d="M0,168C0,112,0,56,0,0c69,0,138,0,207,0c0,56,0,112,0,168C138,168,69,168,0,168z M87.6,161
		c4.1-0.2,5.4-3.4,6.4-7.2c8.9-32.8,17.9-65.6,26.9-98.4c3.2-11.8,6.6-23.6,9.5-35.6c0.5-2.2-0.6-5.7-2.2-7.3
		c-1.2-1.2-4.9-1.1-6.6-0.2c-1.7,0.9-2.8,3.6-3.4,5.7c-8.1,29.3-16.1,58.5-24,87.8c-4.2,15.4-8.4,30.7-12.5,46.1
		C80.2,157,82.6,160.8,87.6,161z M26.4,85.1c2-1.3,3.8-2.1,5.1-3.4c11.1-11,22.2-22.1,33.3-33.2c4.2-4.2,4.7-7.8,1.7-10.8
		c-3-2.8-6.3-2.3-10.3,1.7C42.7,52.9,29.3,66.4,15.8,79.8c-5,5-4.9,7.5,0.1,12.5c11.5,11.6,23.1,23.1,34.6,34.6
		c2.6,2.6,4.9,5.8,8,7.5c2.1,1.1,5.9,0.9,8-0.3c2.9-1.7,2.7-5.1,0.8-7.9c-0.8-1.2-2-2.2-3.1-3.3C52.2,110.8,40,98.7,26.4,85.1z
		 M184.6,86.2c-13.1,13.1-25.8,25.7-38.3,38.3c-3.7,3.7-4,7.3-0.8,10c3.5,2.9,6.7,1.8,9.7-1.1c13.9-13.9,27.8-27.8,41.7-41.7
		c4.1-4.2,4.1-6.9,0-11.1c-13.7-13.8-27.5-27.6-41.3-41.4c-3.7-3.7-7.1-4.1-10-1.2c-2.8,2.8-2.4,6.5,1.1,10.1
		c11.3,11.3,22.6,22.6,33.9,33.9C181.8,83.1,183,84.5,184.6,86.2z"/>
</g>
<path d="M87.6,161c-5-0.2-7.4-4-6-9c4.1-15.4,8.3-30.7,12.5-46.1c8-29.3,15.9-58.6,24-87.8c0.6-2.1,1.7-4.8,3.4-5.7
	c1.8-1,5.5-1,6.6,0.2c1.6,1.6,2.7,5.1,2.2,7.3c-2.8,11.9-6.2,23.7-9.5,35.6c-9,32.8-17.9,65.6-26.9,98.4
	C93,157.5,91.7,160.8,87.6,161z"/>
<path d="M26.4,85.1c13.6,13.6,25.7,25.7,37.9,37.8c1.1,1.1,2.2,2.1,3.1,3.3c1.9,2.8,2.1,6.3-0.8,7.9c-2.1,1.2-5.9,1.4-8,0.3
	c-3.1-1.7-5.4-4.9-8-7.5C39.1,115.4,27.5,103.9,16,92.3c-5.1-5.1-5.1-7.5-0.1-12.5c13.4-13.5,26.8-26.9,40.3-40.3
	c4.1-4,7.4-4.6,10.3-1.7c3.1,3,2.5,6.5-1.7,10.8C53.8,59.6,42.7,70.7,31.6,81.7C30.3,83,28.5,83.8,26.4,85.1z"/>
<path d="M184.6,86.2c-1.6-1.7-2.8-3-4.1-4.3c-11.3-11.3-22.6-22.6-33.9-33.9c-3.5-3.6-3.9-7.3-1.1-10.1c2.8-2.8,6.2-2.5,10,1.2
	c13.8,13.8,27.6,27.5,41.3,41.4c4.1,4.2,4.1,6.9,0,11.1c-13.9,13.9-27.8,27.8-41.7,41.7c-3,3-6.2,4.1-9.7,1.1
	c-3.2-2.7-2.9-6.3,0.8-10C158.8,111.8,171.4,99.3,184.6,86.2z"/>
</svg>
