<?xml version="1.0" encoding="utf-8"?>
<!-- Generator: Adobe Illustrator 23.0.0, SVG Export Plug-In . SVG Version: 6.00 Build 0)  -->
<svg version="1.1" id="Layer_1" xmlns="http://www.w3.org/2000/svg" xmlns:xlink="http://www.w3.org/1999/xlink" x="0px" y="0px"
	 viewBox="0 0 180 140" style="enable-background:new 0 0 180 140;" xml:space="preserve">
<style type="text/css">
	.st0{fill:#A9C45E;}
</style>
<g>
	<path class="st0" d="M89.5,140c-22,0-44,0-65.9,0C9.6,139.9,0,130.4,0,116.4c0-31,0-62,0-92.9C0,9.6,9.6,0,23.6,0
		c44.3,0,88.6,0,132.9,0C170.4,0,180,9.6,180,23.5c0,31,0,62,0,92.9c0,13.9-9.6,23.5-23.5,23.5C134.1,140,111.8,140,89.5,140z
		 M51.2,60C44.9,65.7,39,70.9,33.3,76.2c-4,3.7-4.4,7.9-1.3,11.3s7.2,3.3,11.4-0.3c7.7-6.8,15.4-13.7,23-20.6
		c4.9-4.5,4.9-8.6,0-13.1c-7.5-6.8-15.1-13.6-22.6-20.3c-4.5-4-8.6-4.3-11.8-0.9c-3.4,3.5-2.8,7.8,1.8,12
		C39.5,49.4,45.1,54.5,51.2,60z M99.8,87.5c4.2,0,8.3,0.2,12.5,0c4.8-0.3,7.7-3.3,7.7-7.4c0-4.2-2.9-7.3-7.8-7.4
		c-8.2-0.2-16.3-0.2-24.5,0c-4.8,0-7.7,3.1-7.7,7.3s2.9,7.2,7.8,7.4C91.7,87.6,95.8,87.5,99.8,87.5z"/>
</g>
</svg>
