<?xml version="1.0" encoding="utf-8"?>
<!-- Generator: Adobe Illustrator 23.0.0, SVG Export Plug-In . SVG Version: 6.00 Build 0)  -->
<svg version="1.1" id="Layer_1" xmlns="http://www.w3.org/2000/svg" xmlns:xlink="http://www.w3.org/1999/xlink" x="0px" y="0px"
	 viewBox="0 0 230.2 277.8" style="enable-background:new 0 0 230.2 277.8;" xml:space="preserve">
<style type="text/css">
	.st0{fill:#00FE9C;}
	.st1{fill:#00FE9C;stroke:#010202;stroke-miterlimit:10;}
</style>
<g>
	<path class="st0" d="M14.3,136.8c0-28.7-0.1-57.3,0-86C14.4,25.5,31,9,56.4,9c30.5,0,61,0.1,91.5-0.1c10.1,0,18.4,3.5,25.4,10.7
		c13.7,13.9,27.5,27.6,41.3,41.4c6.6,6.6,9.9,14.4,9.8,23.7c-0.1,46.5,0,93,0,139.5c0,23.4-17.4,40.6-40.8,40.6c-43,0-86,0-129,0
		c-22.8,0-40.3-17.3-40.3-40C14.3,195.4,14.3,166.1,14.3,136.8C14.3,136.8,14.3,136.8,14.3,136.8z M151.5,29.2
		c-1.2-0.2-1.8-0.4-2.4-0.4c-31.8,0-63.7-0.1-95.5,0.1c-11.3,0.1-19.4,9-19.4,20.5c0,58,0,116,0,174c0,13.2,8.2,21.6,21.5,21.6
		c42.3,0.1,84.6,0.1,127,0c14.1,0,21.9-7.9,22-22c0.1-14.7,0-29.3,0-44c0-31-0.1-62,0-93c0-3.9-0.6-6.3-5.4-6
		c-6.5,0.4-13,0.2-19.5,0.1c-16.2-0.4-28.2-12.6-28.3-28.8C151.4,44,151.5,36.9,151.5,29.2z"/>
	<path class="st1" d="M151.5,29.2c0,7.6-0.1,14.8,0,22c0.1,16.2,12.1,28.4,28.3,28.8c6.5,0.2,13,0.3,19.5-0.1c4.8-0.3,5.4,2.1,5.4,6
		c-0.1,31,0,62,0,93c0,14.7,0.1,29.3,0,44c-0.1,14.1-7.9,22-22,22c-42.3,0.1-84.6,0.1-127,0c-13.2,0-21.5-8.4-21.5-21.6
		c0-58,0-116,0-174c0-11.5,8.1-20.4,19.4-20.5c31.8-0.2,63.7-0.1,95.5-0.1C149.7,28.8,150.3,29,151.5,29.2z M119.4,133.8
		c-17.3,0-34.6,0-51.9,0c-6.1,0-10.1,2.5-11.9,7.2c-3.2,8.2,2.6,15.8,12.1,15.8c34.5,0.1,68.9,0,103.4,0c7.6,0,12.9-4.7,13-11.5
		c0.1-6.9-5.3-11.7-13.3-11.7C153.6,133.8,136.5,133.8,119.4,133.8z M119.3,184.8C119.3,184.8,119.3,184.8,119.3,184.8
		c-17.5,0-34.9-0.1-52.4,0c-6.9,0-12.1,4.9-12.2,11.2c-0.2,6.5,5,11.9,12.1,11.9c34.9,0.1,69.9,0,104.8,0c2.1,0,4.4-0.5,6.2-1.4
		c4.8-2.3,7.1-7.5,5.9-12.5c-1.3-5.5-5.4-9.1-11.5-9.1C154.5,184.7,136.9,184.8,119.3,184.8z M97,82.8c-9.8,0-19.6,0-29.4,0
		c-7.6,0-12.9,4.9-13,11.5c0,6.7,5.3,11.6,12.8,11.7c19.6,0.1,39.2,0.1,58.9,0c7.7,0,12.9-4.8,12.9-11.6c0-6.8-5.1-11.6-12.8-11.6
		C116.6,82.7,106.8,82.8,97,82.8z"/>
	<path class="st1" d="M119.4,133.8c17.1,0,34.3,0,51.4,0c7.9,0,13.4,4.8,13.3,11.7c-0.1,6.8-5.4,11.5-13,11.5
		c-34.5,0-68.9,0-103.4,0c-9.6,0-15.3-7.7-12.1-15.8c1.8-4.7,5.8-7.2,11.9-7.2C84.7,133.8,102.1,133.8,119.4,133.8z"/>
	<path class="st1" d="M119.3,184.8c17.6,0,35.3-0.1,52.9,0c6.1,0,10.3,3.6,11.5,9.1c1.1,5-1.2,10.3-5.9,12.5
		c-1.9,0.9-4.1,1.4-6.2,1.4c-34.9,0.1-69.9,0.1-104.8,0c-7,0-12.3-5.4-12.1-11.9c0.2-6.3,5.3-11.2,12.2-11.2
		C84.3,184.7,101.8,184.8,119.3,184.8C119.3,184.8,119.3,184.8,119.3,184.8z"/>
	<path class="st1" d="M97,82.8c9.8,0,19.6-0.1,29.4,0c7.6,0.1,12.8,4.9,12.8,11.6c0,6.8-5.3,11.5-12.9,11.6
		c-19.6,0.1-39.2,0.1-58.9,0c-7.5,0-12.9-5-12.8-11.7c0-6.7,5.3-11.5,13-11.5C77.4,82.7,87.2,82.8,97,82.8z"/>
</g>
</svg>
