<?xml version="1.0" encoding="utf-8"?>
<!-- Generator: Adobe Illustrator 23.0.0, SVG Export Plug-In . SVG Version: 6.00 Build 0)  -->
<svg version="1.1" id="Layer_1" xmlns="http://www.w3.org/2000/svg" xmlns:xlink="http://www.w3.org/1999/xlink" x="0px" y="0px"
	 viewBox="0 0 51 49.5" style="enable-background:new 0 0 51 49.5;" xml:space="preserve">
<style type="text/css">
	.st0{fill:#00FE9C;}
</style>
<g>
	<path class="st0" d="M28.3,35.5c0.6,1.8,0.9,2.7,1.1,3.7c1,4.1-0.9,6.5-5.1,6.3c-9.5-0.4-18-9.1-18.5-19C5.5,16.3,14,7,24.6,6.1
		c9.6-0.8,18.4,6,20.1,15.5C46,29,41.6,34.8,34.1,35.4C32.5,35.6,30.8,35.5,28.3,35.5z M26.6,41.4c-1.7-8.3-1.1-9,7.2-9.4
		c5.4-0.3,8.1-3.2,8-8.6c-0.1-8.7-8.1-14.8-18.2-13.9C14.5,10.2,8,18.9,9.3,28.7C10.4,36.8,18.4,42.8,26.6,41.4z"/>
</g>
</svg>
