<?xml version="1.0" encoding="utf-8"?>
<!-- Generator: Adobe Illustrator 23.0.0, SVG Export Plug-In . SVG Version: 6.00 Build 0)  -->
<svg version="1.1" id="Layer_1" xmlns="http://www.w3.org/2000/svg" xmlns:xlink="http://www.w3.org/1999/xlink" x="0px" y="0px"
	 viewBox="0 0 162.9 214.9" style="enable-background:new 0 0 162.9 214.9;" xml:space="preserve">
<style type="text/css">
	.st0{fill:#FFFFFF;}
</style>
<g>
	<path class="st0" d="M162.9,214.9c-54.3,0-108.7,0-162.9,0C0,143.3,0,71.6,0,0c54.3,0,108.7,0,162.9,0
		C162.9,71.7,162.9,143.3,162.9,214.9z M157,175.6c0-5.5-0.2-11,0-16.5c0.4-9.1-2.6-16.9-8.4-23.8c-4.9-5.9-9.9-11.7-14.4-17.9
		c-1.7-2.2-2.9-5.3-3.1-8c-2-23.3-5.6-46.2-15.2-67.8c-6.2-13.8-14.2-26.3-27.3-34.9C84.3,4,80.7,3.4,76.2,6.3
		c-8.7,5.7-15.4,13.2-20.6,22c-14.9,24.7-20.4,52-22.7,80.3c-0.3,3.2-1.7,6.7-3.6,9.3c-4.3,5.9-9.2,11.4-13.9,17.1
		c-4.6,5.7-8.2,11.9-8.3,19.4c-0.2,14.2-0.3,28.3,0.1,42.5c0.1,2.2,2.2,5.4,4.2,6.3c1.7,0.7,5.2-0.6,6.8-2.2c3.3-3.3,6-7.1,8.6-11
		c5.5-8.4,12.6-14.6,22.2-17.5c1.8-0.5,4.3-0.6,5.9,0.2c18.2,8.4,36.3,8.4,54.4-0.2c1.1-0.5,2.7-1.2,3.7-0.8
		c7.1,2.8,14.4,5.4,19.2,11.9c4.4,5.8,8.7,11.8,13.5,17.3c1.4,1.6,5.2,3.2,6.7,2.4c2.1-1.1,4.2-4.3,4.4-6.7
		C157.3,189.6,157,182.6,157,175.6z M99.6,184.5c-11.9,0-23.4,0-35.3,0c4.3,5.8,8.4,11.6,12.9,17c2.8,3.4,6.7,3.4,9.4,0.1
		C91.1,196.1,95.2,190.3,99.6,184.5z"/>
	<path d="M157,175.6c0,7,0.4,14-0.2,21c-0.2,2.4-2.3,5.6-4.4,6.7c-1.5,0.8-5.2-0.8-6.7-2.4c-4.8-5.5-9.1-11.5-13.5-17.3
		c-4.9-6.4-12.1-9.1-19.2-11.9c-1-0.4-2.5,0.3-3.7,0.8c-18.1,8.6-36.2,8.6-54.4,0.2c-1.7-0.8-4.1-0.8-5.9-0.2
		c-9.6,2.9-16.8,9.1-22.2,17.5c-2.5,3.9-5.3,7.8-8.6,11c-1.6,1.6-5.1,2.9-6.8,2.2c-2-0.9-4.2-4.1-4.2-6.3
		c-0.4-14.2-0.3-28.3-0.1-42.5c0.1-7.4,3.7-13.7,8.3-19.4c4.6-5.7,9.6-11.1,13.9-17.1c1.9-2.6,3.4-6.1,3.6-9.3
		c2.3-28.3,7.8-55.6,22.7-80.3c5.3-8.8,11.9-16.3,20.6-22c4.5-3,8.1-2.4,12.3,0.4c13.1,8.6,21.1,21,27.3,34.9
		c9.6,21.5,13.2,44.5,15.2,67.8c0.2,2.8,1.5,5.8,3.1,8c4.6,6.1,9.5,12,14.4,17.9c5.8,6.9,8.8,14.7,8.4,23.8
		C156.7,164.6,157,170.1,157,175.6z M63.2,81.2c0.1,5.2,2.4,11.9,6.4,16.7c6.6,7.7,17.1,8,24,0.6c9.9-10.7,9.2-30.3-1.5-40.2
		c-5.9-5.5-14.2-5.6-20.3-0.2C65.7,63.6,63.3,70.8,63.2,81.2z"/>
	<path d="M99.6,184.5c-4.4,5.8-8.5,11.6-13,17.1c-2.8,3.4-6.7,3.3-9.4-0.1c-4.5-5.5-8.6-11.3-12.9-17
		C76.3,184.5,87.7,184.5,99.6,184.5z"/>
	<path class="st0" d="M63.2,81.2c0.1-10.4,2.4-17.6,8.7-23.2c6-5.4,14.4-5.3,20.3,0.2c10.7,9.9,11.4,29.6,1.5,40.2
		c-6.9,7.4-17.4,7.1-24-0.6C65.6,93.1,63.3,86.4,63.2,81.2z"/>
</g>
</svg>
