<?xml version="1.0" encoding="utf-8"?>
<!-- Generator: Adobe Illustrator 23.0.0, SVG Export Plug-In . SVG Version: 6.00 Build 0)  -->
<svg version="1.1" id="Layer_1" xmlns="http://www.w3.org/2000/svg" xmlns:xlink="http://www.w3.org/1999/xlink" x="0px" y="0px"
	 viewBox="0 0 279.4 239" style="enable-background:new 0 0 279.4 239;" xml:space="preserve">
<style type="text/css">
	.st0{fill:#00FE9C;}
	.st1{fill:#FFFFFF;}
</style>
<g>
	<path class="st0" d="M43.8,138.8c-5.7,0-10.7-0.2-15.7,0c-17.6,0.8-29.2-12.6-28.1-27.7c0.7-8.6,0.1-17.3,0.1-26
		c0-15.4,10.1-25.8,25.5-25.9c21.2-0.1,42.3-0.6,63.5,0.1C133,60.9,171.9,46.8,207.9,23c9-6,17.6-12.5,26.2-19.1
		c7.8-6,16.5-5.2,21.3,3.5c2.5,4.5,3.8,10.3,4,15.6c0.5,17,0.3,34,0.1,51c0,3.4,1,4.9,4.4,5.8c10.2,2.8,15.8,10.2,15.6,19.8
		c-0.3,9.2-6.3,16.5-16.4,18.7c-3.6,0.8-3.5,2.9-3.5,5.4c0,17.7,0,35.3,0,53c0,8.9-3.3,15.9-11.5,20c-4.3,2.2-8.2,2.1-12.3-1.3
		c-28.8-23.4-60-42.5-96.4-51.7c-5.6-1.4-11.4-2.2-17.1-3.3c-13.1-2.5-24.1,4.4-27.6,17.3c-2,7.1-1.1,13.8,3,20.1
		c0.9,1.4,1.1,3.8,0.5,5.3c-3.5,9.1-2.5,17.4,4.1,24.6c4.1,4.5,8.5,9,13.3,12.8c4,3.1,3.8,6,0.2,8.2c-5.3,3.3-10.8,6.6-16.7,8.3
		c-13.4,3.8-26.7,2.5-39.1-4.5c-2.2-1.2-4.3-3.8-5.1-6.2c-4.8-15.9-10.5-31.6-13.4-47.9c-1.9-10.3,0.4-21.4,0.9-32.2
		C42.5,144.1,43.2,142,43.8,138.8z M239.7,24.7c-2,1.1-3.3,1.7-4.5,2.5c-7.6,5.2-14.9,10.6-22.6,15.5c-27.4,17.3-56.6,30-89.1,34.2
		c-3.3,0.4-4.1,2.1-4,5c0.1,11.2,0.2,22.3,0,33.5c-0.1,3.8,1.4,4.9,5.1,5.6c12.6,2.8,25.4,5.3,37.6,9.4c25.8,8.5,49,22.2,70.8,38.2
		c1.9,1.4,4,2.6,6.8,4.4C239.7,123.1,239.7,74.4,239.7,24.7z"/>
	<path class="st1" d="M239.7,24.7c0,49.7,0,98.4,0,148.3c-2.7-1.8-4.8-3-6.8-4.4c-21.8-16-45-29.7-70.8-38.2
		c-12.2-4-25-6.6-37.6-9.4c-3.6-0.8-5.1-1.8-5.1-5.6c0.2-11.2,0.1-22.3,0-33.5c0-2.9,0.7-4.6,4-5c32.4-4.2,61.7-16.9,89.1-34.2
		c7.7-4.9,15.1-10.3,22.6-15.5C236.4,26.4,237.7,25.8,239.7,24.7z"/>
</g>
</svg>
