<?xml version="1.0" encoding="utf-8"?>
<!-- Generator: Adobe Illustrator 23.0.0, SVG Export Plug-In . SVG Version: 6.00 Build 0)  -->
<svg version="1.1" id="Layer_1" xmlns="http://www.w3.org/2000/svg" xmlns:xlink="http://www.w3.org/1999/xlink" x="0px" y="0px"
	 viewBox="0 0 175.2 150.3" style="enable-background:new 0 0 175.2 150.3;" xml:space="preserve">
<g>
	<path d="M87.1,150.1c-17.3,0-34.7-0.7-52,0.2c-20.4,1.1-39.9-14.7-34.1-42c5.8-27.1,12.4-54.1,19-81C24.1,10.4,36.8,0.4,54.3,0.2
		c22.1-0.3,44.3-0.3,66.5,0c17.3,0.2,30,10,34.1,26.7c6.7,27.1,13.2,54.2,19.3,81.5c4.4,19.9-6,37.2-24.2,41.1
		c-2.6,0.6-5.3,0.6-7.9,0.6C123.7,150.1,105.4,150.1,87.1,150.1z M156.5,88.7c0,0,0.1-0.5,0-1c-4.6-19.6-9-39.2-13.9-58.6
		c-2.7-10.6-10.4-16.1-21.7-16.2c-22.1-0.1-44.3-0.1-66.4,0C42.2,13,34.6,19.2,31.8,31.2c-4.3,18.1-8.5,36.2-12.7,54.3
		c-0.3,1.3-0.4,2.8-0.4,3.5c7.4-0.4,14.4-1.2,21.3-1.2c29.5-0.1,58.9-0.1,88.4,0C137.6,87.8,146.8,88.3,156.5,88.7z M87.3,137.7
		c17.3,0,34.6,0,52,0c2.7,0,5.3-0.2,7.9-0.6c9.3-1.6,16-10.2,15.3-19.8c-0.6-8.8-8.5-17-17.3-17c-38.5-0.1-77-0.2-115.4,0
		c-10.8,0.1-19.2,11.5-16.9,22c2.3,10,9.5,15.4,21.4,15.4C52,137.8,69.7,137.7,87.3,137.7z"/>
	<path d="M117.4,116.9c0.1,3.6-2.7,6.6-6.1,6.4c-3.6-0.3-5.7-2.4-6-6c-0.3-3.3,2.8-6.4,6.2-6.4C114.7,110.9,117.3,113.5,117.4,116.9
		z"/>
	<path d="M140.8,116.9c-0.2,3.1-1.9,5.4-5.6,5.8c-3.3,0.4-6.4-2.6-6.6-6c-0.2-3.4,2.8-6.5,6.2-6.3
		C138.4,110.6,140.6,112.5,140.8,116.9z"/>
</g>
</svg>
