<?xml version="1.0" encoding="utf-8"?>
<!-- Generator: Adobe Illustrator 23.0.0, SVG Export Plug-In . SVG Version: 6.00 Build 0)  -->
<svg version="1.1" id="Layer_1" xmlns="http://www.w3.org/2000/svg" xmlns:xlink="http://www.w3.org/1999/xlink" x="0px" y="0px"
	 viewBox="0 0 38.7 31.8" style="enable-background:new 0 0 38.7 31.8;" xml:space="preserve">
<style type="text/css">
	.st0{fill:#00FE9C;}
</style>
<g>
	<path class="st0" d="M23.8,5.4c2.8,2.3,5.5,4.6,8.4,6.9c-0.2,0.1-0.4,0.4-0.7,0.6c-6.9,5.7-13.8,11.4-20.8,17
		c-0.5,0.4-1.3,0.7-1.9,0.9c-2.2,0.4-4.5,0.7-6.8,1c-1.2,0.2-2.1-0.5-1.9-1.5C0.5,28.2,1,26.1,1.4,24c0-0.2,0.2-0.5,0.5-0.7
		c7.2-6,14.5-11.9,21.8-17.9C23.7,5.4,23.8,5.4,23.8,5.4z"/>
	<path class="st0" d="M20.5,25.2c3.4-2.9,6.7-5.6,10-8.4c1,0.9,2,1.8,3.1,2.7c-1.3,1.1-2.7,2.3-4.2,3.3c-0.8,0.6-0.6,0.9,0,1.5
		c0.6,0.5,1.1,0.7,1.8,0.1c1.3-1.2,2.7-2.3,4.2-3.6c1,0.8,1.9,1.5,2.7,2.2c0.8,0.7,0.7,1.8-0.1,2.5c-2.3,1.9-4.5,3.8-6.8,5.6
		c-0.9,0.8-2.1,0.8-3.1,0.1C25.5,29.3,22.9,27.2,20.5,25.2z"/>
	<path class="st0" d="M15,4.3c1.1,0.9,2.2,1.7,3.2,2.4C14.8,9.4,11.5,12.2,8,15c-0.5-0.4-0.9-0.9-1.5-1.4c-1.8-1.5-3.7-3-5.6-4.6
		c-1.2-1-1.2-2,0-3C3,4.3,5.2,2.5,7.4,0.7c1.1-0.9,2.3-0.9,3.4-0.1c0.7,0.5,1.3,1.1,2,1.6c0.2,0.1,0.3,0.3,0.6,0.5
		C11.9,3.9,10.4,5.1,9,6.2C8.3,6.7,8.3,7,9,7.5C9.5,8,10,8.3,10.8,7.7C12.2,6.5,13.6,5.3,15,4.3z"/>
	<path class="st0" d="M34.3,10.5c-2.8-2.3-5.5-4.5-8.3-6.8c1.1-1,2.3-2.1,3.6-3c1.3-0.9,3.1-0.8,4.4,0.1c1.3,1,2.5,2,3.7,3
		c1.2,1.1,1.3,2.7,0.2,3.7C36.8,8.6,35.5,9.6,34.3,10.5z"/>
</g>
</svg>
